<?xml version="1.0" encoding="utf-8"?>
<!-- Generator: Adobe Illustrator 22.1.0, SVG Export Plug-In . SVG Version: 6.00 Build 0)  -->
<svg version="1.1" id="图层_1" xmlns="http://www.w3.org/2000/svg" xmlns:xlink="http://www.w3.org/1999/xlink" x="0px" y="0px"
	 viewBox="0 0 28.5 39" style="enable-background:new 0 0 28.5 39;" xml:space="preserve">
<style type="text/css">
	.st0{fill:#EDF0F2;}
	.st1{fill:#A5B2BF;}
</style>
<g>
	<g>
		<path class="st0" d="M9.8,13.1c0,1.8,0.5,3.5,1.3,4.9c1.1,0.6,2.3,1,3.7,1l0,0l0,0c4.3,0,8-4.1,8-9.1c0-1.9-0.5-3.6-1.3-5
			c-1.1-0.6-2.4-1-3.7-1C13.3,4,9.8,8.1,9.8,13.1z"/>
		<path class="st0" d="M27.4,25.2L27.4,25.2L27.4,25.2h-7.2L15,30.4c-0.2,0.4-0.5,0.8-0.9,0.9l-2.7-6.2H8.2l0,0
			c-2.1,0-3.7,1.9-3.7,4.3v7.2c0,0.4,0.1,0.9,0.2,1.3l0,0h19.1c2.1,0,3.7-2,3.7-4.3v-7.1C27.6,26,27.5,25.6,27.4,25.2z"/>
	</g>
	<path class="st1" d="M14.3,20.2c-5,0-9-4.5-9-10.1S9.3,0,14.3,0c5,0,9,4.5,9,10.1C23.3,15.6,19.2,20.2,14.3,20.2z M14.3,2
		c-3.9,0-7,3.6-7,8.1s3.1,8.1,7,8.1c3.8,0,7-3.7,7-8.1C21.3,5.6,18.2,2,14.3,2z"/>
	<path class="st1" d="M23.8,39H4.7C2.2,39,0,36.6,0,33.7v-7.2c0-3,2.1-5.3,4.7-5.3h5.4c0.4,0,0.8,0.2,0.9,0.6l3.3,7.5l3.3-7.5
		c0.2-0.4,0.5-0.6,0.9-0.6h5.4c1.3,0,2.5,0.5,3.3,1.5c0.9,1,1.4,2.4,1.3,3.9l0,7.1C28.5,36.6,26.4,39,23.8,39z M4.7,23.2
		c-1.5,0-2.7,1.4-2.7,3.3v7.2C2,35.5,3.3,37,4.7,37h19.1c1.5,0,2.7-1.5,2.7-3.3v-7.2c0.1-1-0.2-1.9-0.7-2.5
		c-0.5-0.5-1.1-0.8-1.9-0.8h-4.7l-3.9,9c-0.2,0.4-0.5,0.6-0.9,0.6s-0.8-0.2-0.9-0.6l-3.9-9H4.7z"/>
</g>
</svg>
