<?xml version="1.0" encoding="utf-8"?>
<!-- Generator: Adobe Illustrator 22.1.0, SVG Export Plug-In . SVG Version: 6.00 Build 0)  -->
<svg version="1.1" id="图层_1" xmlns="http://www.w3.org/2000/svg" xmlns:xlink="http://www.w3.org/1999/xlink" x="0px" y="0px"
	 viewBox="0 0 32 38.2" style="enable-background:new 0 0 32 38.2;" xml:space="preserve">
<style type="text/css">
	.st0{fill:#EDF0F2;}
	.st1{fill:#FFFFFF;}
	.st2{fill:#A5B2BF;}
</style>
<g>
	<g>
		<g>
			<path class="st0" d="M29.8,18.8l-1.7-3.7l-3.2-3.4l0.6,0.3l4.1-8.9h-8l-2.5,5.3l4.5,2.6c-1.2-0.4-2.6-0.6-3.9-0.6
				c-7.4,0-13.4,6-13.4,13.4s6,13.4,13.4,13.4c0.1,0,0.2,0,0.3,0l3.1-1.8l3.7-3l2.4-3.8l1.2-5.1L29.8,18.8z"/>
			<polygon class="st0" points="14.8,8.5 12.5,3.2 6.6,3.2 10,9.9 			"/>
		</g>
	</g>
	<path class="st1" d="M17.2,17.3l-1.5,3.2C15.6,20.8,15.3,21,15,21l-2.4,0.4l1.9,2c0.2,0.2,0.3,0.5,0.2,0.8l-0.5,2.9l-2.3,1.5
		l-0.4-1.2l0.3-3.7l-3.3-3.5l4.9-1.1l2.5-4L17.2,17.3z"/>
	<g>
		<path class="st2" d="M6.4,12.8c-0.4,0-0.7-0.2-0.9-0.6L0.1,1.4C0,1.1,0,0.8,0.1,0.5C0.3,0.2,0.7,0,1,0h10.6c0.4,0,0.7,0.2,0.9,0.6
			l3.7,7.5c0.2,0.5,0,1.1-0.5,1.3c-0.5,0.2-1.1,0-1.3-0.5L11,2H2.6l4.7,9.4c0.2,0.5,0,1.1-0.4,1.3C6.7,12.8,6.6,12.8,6.4,12.8z"/>
		<path class="st2" d="M25.5,13.1c-0.1,0-0.3,0-0.4-0.1c-0.5-0.2-0.7-0.8-0.5-1.3L29.4,2H21l-3.3,6.9c-0.2,0.5-0.8,0.7-1.3,0.5
			c-0.5-0.2-0.7-0.8-0.5-1.3l3.6-7.5C19.7,0.2,20,0,20.4,0H31c0.3,0,0.7,0.2,0.8,0.5c0.2,0.3,0.2,0.7,0,1l-5.5,11.1
			C26.2,12.9,25.9,13.1,25.5,13.1z"/>
		<path class="st2" d="M16,38.2c-8.5,0-15.4-6.9-15.4-15.3C0.6,14.4,7.5,7.5,16,7.5c8.5,0,15.4,6.9,15.4,15.3
			C31.4,31.3,24.5,38.2,16,38.2z M16,9.5c-7.4,0-13.4,6-13.4,13.4c0,7.3,6,13.3,13.4,13.3s13.4-6,13.4-13.4
			C29.4,15.5,23.4,9.5,16,9.5z M11.6,30.2c-0.3,0-0.5-0.1-0.8-0.2c-0.5-0.3-0.8-0.8-0.8-1.4c0-0.1,0-0.1,0-0.2l0.7-4l-2.9-2.8
			c-0.4-0.4-0.5-0.9-0.4-1.5c0.2-0.6,0.6-1,1.1-1.1l4.1-0.6l1.8-3.6c0.3-0.5,0.8-0.9,1.4-0.9c0.6,0,1.1,0.3,1.4,0.9l1.8,3.6l4,0.6
			c0.7,0.1,1.3,0.6,1.4,1.2c0.1,0.5-0.1,1.1-0.5,1.4l-2.9,2.8l0.7,4c0.1,0.5-0.1,1.1-0.6,1.5c-0.5,0.4-1.1,0.5-1.7,0.2L16,28.1
			L12.4,30C12.1,30.1,11.9,30.2,11.6,30.2z M19.8,28.7C19.8,28.7,19.8,28.7,19.8,28.7L19.8,28.7z M10,20.7l2.6,2.5
			c0.2,0.2,0.3,0.6,0.3,0.9l-0.6,3.6l3.3-1.7c0.3-0.1,0.6-0.1,0.9,0l3.2,1.7L19,24.2c-0.1-0.3,0-0.7,0.3-0.9l2.6-2.5l-3.7-0.6
			c-0.3-0.1-0.6-0.3-0.7-0.5l-1.6-3.3l-1.6,3.3c-0.1,0.3-0.4,0.5-0.7,0.5L10,20.7z"/>
	</g>
</g>
</svg>
