<svg xmlns="http://www.w3.org/2000/svg" width="44" height="44" viewBox="0 0 44 44">
  <path id="形状_14" data-name="形状 14" d="M590,1271a22,22,0,1,1,22,22A22.159,22.159,0,0,1,590,1271Zm2.64,0A19.36,19.36,0,1,0,612,1251.64,19.36,19.36,0,0,0,592.64,1271Zm10.267,3.813h18.187a9.093,9.093,0,1,1-18.187,0Zm9.093,7.04v0c3.406,0,6.036-2.861,6.036-4.994H605.964C605.964,1279.136,608.6,1281.853,612,1281.853Zm9.387-12.613-4.4-2.053c-.294,0-.294-.294-.294-.587a1.023,1.023,0,0,1,.294-.587l4.4-2.054a.656.656,0,0,1,.587,1.174l-2.934,1.467,2.934,1.467c.293.293.587.586.293.88,0,.293-.293.293-.586.293Zm-19.764-1.063a2.628,2.628,0,0,1-.77-1.87,2.894,2.894,0,0,1,2.934-2.641,2.462,2.462,0,0,1,2.64,2.641,2.7,2.7,0,0,1-2.933,2.64h-.012A2.628,2.628,0,0,1,601.623,1268.177Z" transform="translate(-590 -1249)" fill="#999"/>
</svg>
