<?xml version="1.0" encoding="utf-8"?>
<!-- Generator: Adobe Illustrator 22.1.0, SVG Export Plug-In . SVG Version: 6.00 Build 0)  -->
<svg version="1.1" id="图层_1" xmlns="http://www.w3.org/2000/svg" xmlns:xlink="http://www.w3.org/1999/xlink" x="0px" y="0px"
	 viewBox="0 0 34.8 36.6" style="enable-background:new 0 0 34.8 36.6;" xml:space="preserve">
<style type="text/css">
	.st0{fill:#EDF0F2;}
	.st1{fill:#A5B2BF;}
</style>
<g>
	<path class="st0" d="M33.8,25.6V5.1V5H10.1C7.8,5,6,6.8,6,9.1v20.5v0.1h23.6C31.9,29.6,33.8,27.8,33.8,25.6z"/>
	<path class="st0" d="M33.8,25.6V5.1V5H10.1C7.8,5,6,6.8,6,9.1v20.5v0.1h23.6C31.9,29.6,33.8,27.8,33.8,25.6z"/>
	<g>
		<path class="st1" d="M29.7,30.7H5.1c-2.9,0-5.1-2.2-5.1-5.1V5.1C0,2.2,2.2,0,5.1,0h24.6c2.8,0,5.1,2.3,5.1,5.1v20.5
			C34.8,28.5,32.6,30.7,29.7,30.7z M5.1,2C3.4,2,2,3.4,2,5.1v20.5c0,1.7,1.4,3.1,3.1,3.1h24.6c1.7,0,3.1-1.4,3.1-3.1V5.1
			c0-1.7-1.4-3.1-3.1-3.1H5.1z"/>
		<path class="st1" d="M17.4,23.2c-0.4,0-0.8-0.2-0.9-0.6l-3.7-9.2L10.4,18c-0.2,0.3-0.5,0.5-0.9,0.5H5.2c-0.6,0-1-0.4-1-1
			s0.4-1,1-1h3.7l3.1-6c0.2-0.3,0.6-0.6,0.9-0.5c0.4,0,0.7,0.3,0.9,0.6l3.5,8.6l4-12.4c0.1-0.4,0.5-0.7,1-0.7l0,0
			c0.4,0,0.8,0.3,1,0.7l3.1,9.7h3.4c0.6,0,1,0.4,1,1s-0.4,1-1,1h-4.1c-0.4,0-0.8-0.3-1-0.7l-2.3-7.4l-3.8,12.1
			C18.2,22.9,17.9,23.2,17.4,23.2C17.4,23.2,17.4,23.2,17.4,23.2z"/>
	</g>
	<path class="st1" d="M33.8,36.6H1c-0.6,0-1-0.4-1-1s0.4-1,1-1h32.8c0.6,0,1,0.4,1,1S34.4,36.6,33.8,36.6z"/>
</g>
</svg>
