<?xml version="1.0" encoding="utf-8"?>
<!-- Generator: Adobe Illustrator 22.1.0, SVG Export Plug-In . SVG Version: 6.00 Build 0)  -->
<svg version="1.1" id="图层_1" xmlns="http://www.w3.org/2000/svg" xmlns:xlink="http://www.w3.org/1999/xlink" x="0px" y="0px"
	 viewBox="0 0 36.4 38.6" style="enable-background:new 0 0 36.4 38.6;" xml:space="preserve">
<style type="text/css">
	.st0{fill:#EDF0F2;}
	.st1{fill:none;}
	.st2{fill:#A5B2BF;}
</style>
<g>
	<g>
		<g>
			<path class="st0" d="M32.9,34.8l1.7-1.6l0.9-3V13.6L24.8,4.1c-1.5-1.5-4-1.5-5.5,0L5.4,16.4c-0.4,0.4-0.6,0.9-0.6,1.5v17.8H30
				L32.9,34.8z"/>
		</g>
	</g>
	<path class="st1" d="M34.1,15.2L20.3,2.9C19.7,2.3,18.9,2,18.2,2c-0.7,0-1.5,0.3-2.1,0.8l0,0L2.2,15.2c-0.2,0.2-0.3,0.4-0.3,0.7
		v16.2c0,2.5,2,4.4,4.4,4.4h23.6c2.5,0,4.4-2,4.4-4.4V21c-0.8,0.4-1.6,0.6-2.5,0.6c-1.9,0-3.7-1-4.6-2.7c-0.4-0.6-0.1-1.4,0.5-1.8
		c0.6-0.4,1.4-0.1,1.8,0.5c0.5,0.8,1.4,1.4,2.4,1.4c1,0,1.9-0.5,2.4-1.4c0-0.1,0.1-0.1,0.1-0.1v-1.6C34.4,15.7,34.3,15.4,34.1,15.2z
		"/>
	<path class="st2" d="M35.5,13.7L21.7,1.4c-1.9-1.9-5-1.9-6.9,0L0.9,13.8C0.3,14.4,0,15.2,0,16v16.2c0,3.6,2.9,6.4,6.4,6.4H30
		c3.6,0,6.4-2.9,6.4-6.4v-13v-1.7V16C36.4,15.1,36.1,14.3,35.5,13.7z M34.4,32.1c0,2.5-2,4.4-4.4,4.4H6.4c-2.5,0-4.4-2-4.4-4.4V15.9
		c0-0.3,0.1-0.5,0.3-0.7L16.2,2.9l0,0c0.6-0.6,1.3-0.8,2.1-0.8s1.5,0.3,2.1,0.9l13.8,12.3c0.2,0.2,0.3,0.5,0.3,0.7v1.6l-0.1,0.1
		c-0.5,0.8-1.4,1.4-2.4,1.4c-1,0-1.9-0.5-2.4-1.4c-0.4-0.6-1.2-0.8-1.8-0.5c-0.6,0.4-0.8,1.2-0.5,1.8c1,1.6,2.7,2.7,4.6,2.7
		c0.9,0,1.7-0.2,2.5-0.6C34.4,21.1,34.4,32.1,34.4,32.1z"/>
</g>
</svg>
