<?xml version="1.0" encoding="utf-8"?>
<!-- Generator: Adobe Illustrator 22.1.0, SVG Export Plug-In . SVG Version: 6.00 Build 0)  -->
<svg version="1.1" id="图层_1" xmlns="http://www.w3.org/2000/svg" xmlns:xlink="http://www.w3.org/1999/xlink" x="0px" y="0px"
	 viewBox="0 0 38.8 38.6" style="enable-background:new 0 0 38.8 38.6;" xml:space="preserve">
<style type="text/css">
	.st0{fill:#EDF0F2;}
	.st1{fill:#A5B2BF;}
</style>
<g>
	<g>
		<g>
			<path class="st0" d="M37.8,5.9h-6l-0.7-1.1H12.4c0,0,0,14.7,7.2,20.8v9c0,0-2.8,2.6-9.6,2.9h20.2v-4.2c0,0-8.9,0.6-8.3-5.1
				C21.9,28.1,39.7,22.6,37.8,5.9z M31.1,9.9h2.6c-0.2,7.2-5.1,10-5.1,10L31.1,9.9z"/>
		</g>
	</g>
	<g id="XMLID_1_">
		<path class="st1" d="M30.7,38.6H8.2c-0.6,0-1-0.4-1-1v-4.2c0-0.6,0.4-1,1-1H10c4.1,0,5.8-1,6.3-1.8V29c-1.8-0.8-6.4-3.1-8.8-4.9
			c-3.3-2.5-4.6-4.6-5.5-6.6c-0.9-2-2-5-2-11.5c0-0.6,0.4-1,1-1h5.3c0-0.9,0-2.2,0-3.9l0-0.1c0-0.5,0.5-1,1-1h24.1c0.5,0,1,0.4,1,1
			c0,0.1,0.1,1.9,0,3.9h5.4c0.6,0,1,0.4,1,1c0,6.3-1.5,10.5-2,11.6c-0.7,1.8-3.1,4.9-5.5,6.6c-1.3,1-4.3,2.7-8.8,4.9v1.7
			c0.5,0.8,2.2,1.7,5.9,1.7h2.3c0.6,0,1,0.4,1,1v4.2C31.7,38.2,31.3,38.6,30.7,38.6z M9.2,36.6h20.5v-2.2h-1.3c-5.8,0-7.4-2-7.8-3.1
			c0-0.1-0.1-0.2-0.1-0.4v-2.5c0-0.4,0.2-0.7,0.6-0.9l0.2-0.1c6-3,8.1-4.4,8.8-4.9c2.1-1.5,4.3-4.3,4.9-5.8c0.8-2,1.7-5.6,1.8-9.8
			h-5.4c-0.3,0-0.5-0.1-0.7-0.3c-0.2-0.2-0.3-0.5-0.3-0.7c0.1-1.4,0-2.9,0-3.9H8.3c0,1.9,0,3.2,0,4c0,0.3-0.1,0.5-0.3,0.7
			C7.8,6.9,7.6,7,7.3,7H2c0.1,5.4,1,8,1.8,9.7c0.9,2,2.1,3.7,4.9,5.8c2.3,1.8,6.8,3.9,8.5,4.7c0.3,0.1,0.5,0.2,0.6,0.3
			c0.3,0.2,0.6,0.5,0.6,0.9v2.5c0,0.1,0,0.3-0.1,0.4c-0.4,0.9-2,3.1-8.2,3.1H9.2V36.6z"/>
	</g>
	<path class="st1" d="M6.4,15.4C5.6,13.8,5.1,12.1,5,9.9h2.5c0.1,0.5,0.1,1,0.2,1.5c0.6,3.5,1.3,6.2,2.3,8.5
		C8.6,18.7,7.3,17.1,6.4,15.4z"/>
	<path class="st1" d="M32.3,15.4c-0.9,1.8-2.1,3.3-3.7,4.5c1-2.3,1.7-5,2.3-8.5c0.1-0.5,0.1-0.9,0.2-1.5h2.6
		C33.5,12.1,33,13.8,32.3,15.4L32.3,15.4z"/>
</g>
</svg>
