<svg xmlns="http://www.w3.org/2000/svg" width="36.999" height="42.009" viewBox="0 0 36.999 42.009">
  <path id="形状_10" data-name="形状 10" d="M674.5,2902.687c-8.155,0-18.5,4.976-18.5-5.335a18.66,18.66,0,0,1,11.781-17.381,14.09,14.09,0,0,0,13.441,0A18.659,18.659,0,0,1,693,2897.352c0,5.248-2.679,6.536-6.385,6.536C683.037,2903.887,678.5,2902.687,674.5,2902.687Zm0-19.065q-.443,0-.89,1.894l-2.311,7.859a.473.473,0,0,0,.094.437l3.108,3.774,3.113-3.777a.471.471,0,0,0,.094-.428q-2.766-9.759-3.207-9.76Zm-8.779-12.769a8.783,8.783,0,1,1,8.78,8.975A8.879,8.879,0,0,1,665.719,2870.853Z" transform="translate(-656 -2861.879)" fill="#ccc"/>
</svg>
