<?xml version="1.0" standalone="no"?><!DOCTYPE svg PUBLIC "-//W3C//DTD SVG 1.1//EN" "http://www.w3.org/Graphics/SVG/1.1/DTD/svg11.dtd"><svg t="1605941657297" class="icon" viewBox="0 0 1024 1024" version="1.1" xmlns="http://www.w3.org/2000/svg" p-id="2743" xmlns:xlink="http://www.w3.org/1999/xlink" width="200" height="200"><defs><style type="text/css"></style></defs><path d="M30.4 512c0 67.2 54.4 121.6 121.6 121.6s121.6-54.4 121.6-121.6-54.4-121.6-121.6-121.6-121.6 54.4-121.6 121.6zM390.4 512c0 67.2 54.4 121.6 121.6 121.6 67.2 0 121.6-54.4 121.6-121.6s-54.4-121.6-121.6-121.6c-67.2 0-121.6 54.4-121.6 121.6zM748.8 512c0 67.2 54.4 121.6 121.6 121.6S992 579.2 992 512s-54.4-121.6-121.6-121.6-121.6 54.4-121.6 121.6z" fill="" p-id="2744"></path></svg>